<svg width="9" height="9" viewBox="0 0 9 9" fill="none" xmlns="http://www.w3.org/2000/svg">
<path d="M8.97647 3.45216C8.91721 3.26992 8.75557 3.1409 8.56509 3.12366L5.96705 2.8878L4.9403 0.483952C4.86449 0.307344 4.692 0.193359 4.50001 0.193359C4.30802 0.193359 4.13547 0.307344 4.06014 0.483952L3.03338 2.8878L0.434934 3.12366C0.244455 3.14124 0.0831596 3.27027 0.0235578 3.45216C-0.0357007 3.6344 0.0190258 3.83429 0.163086 3.96063L2.12699 5.68269L1.54794 8.23307C1.50557 8.4206 1.57836 8.61451 1.73395 8.72698C1.81759 8.78775 1.91585 8.8181 2.01445 8.8181C2.09918 8.8181 2.18399 8.79558 2.25972 8.75026L4.50001 7.41073L6.73989 8.75026C6.9042 8.84845 7.11082 8.83946 7.26607 8.72698C7.42167 8.61451 7.49445 8.4206 7.45209 8.23307L6.87303 5.68269L8.83694 3.96063C8.98093 3.83429 9.03572 3.63481 8.97647 3.45216Z" fill="#FFD500"/>
</svg>
