<svg width="82" height="76" viewBox="0 0 82 76" fill="none" xmlns="http://www.w3.org/2000/svg">
<path d="M79.5983 14.1177C79.5983 13.455 80.1387 12.9146 80.8014 12.9146C81.4643 12.9146 82 13.455 82 14.1177V50.1556C82 51.7672 81.3418 53.2336 80.2793 54.2961C79.217 55.3584 77.7506 56.0213 76.1344 56.0213H49.0447L51.2964 66.5221H56.4902C57.716 66.5221 58.8236 67.0215 59.6273 67.8251C60.4308 68.6286 60.9302 69.7364 60.9302 70.9576C60.9302 72.1788 60.4308 73.2911 59.6273 74.0948C58.8236 74.8983 57.716 75.3976 56.4902 75.3976H25.5098C24.2885 75.3976 23.1764 74.8983 22.3727 74.0948C21.5692 73.2911 21.0698 72.1788 21.0698 70.9576C21.0698 69.7364 21.5692 68.6286 22.3727 67.8251C23.1764 67.0215 24.2885 66.5221 25.5098 66.5221H30.7036L32.9598 56.0213H5.86556C4.24943 56.0213 2.78288 55.3584 1.72072 54.2961C0.658242 53.2338 0 51.7672 0 50.1556V41.6024C0 40.9395 0.540367 40.4038 1.20309 40.4038C1.86582 40.4038 2.40154 40.9395 2.40154 41.6024V44.29H79.5983V14.1177ZM62.837 17.6134C62.1741 17.6134 61.6384 17.0732 61.6384 16.4103C61.6384 15.7474 62.1741 15.2072 62.837 15.2072H75.744C76.4069 15.2072 76.9424 15.7474 76.9424 16.4103C76.9424 17.0732 76.4067 17.6134 75.744 17.6134H62.837ZM62.837 7.97986C62.1741 7.97986 61.6384 7.44413 61.6384 6.78141C61.6384 6.11404 62.1741 5.57831 62.837 5.57831H75.744C76.4069 5.57831 76.9424 6.11404 76.9424 6.78141C76.9424 7.44429 76.4067 7.97986 75.744 7.97986H62.837ZM62.837 12.6423C62.1741 12.6423 61.6384 12.1066 61.6384 11.4439C61.6384 10.781 62.1741 10.2408 62.837 10.2408H75.744C76.4069 10.2408 76.9424 10.781 76.9424 11.4439C76.9424 12.1068 76.4067 12.6423 75.744 12.6423H62.837ZM62.837 22.276C62.1741 22.276 61.6384 21.7357 61.6384 21.0728C61.6384 20.4101 62.1741 19.8743 62.837 19.8743H72.6341C73.2969 19.8743 73.8325 20.4101 73.8325 21.0728C73.8325 21.7357 73.2968 22.276 72.6341 22.276H62.837ZM56.9897 31.9234C56.3268 31.9234 55.7864 31.3832 55.7864 30.7203C55.7864 30.0574 56.3268 29.5218 56.9897 29.5218H69.892C70.5547 29.5218 71.0951 30.0576 71.0951 30.7203C71.0951 31.383 70.5547 31.9234 69.892 31.9234H56.9897ZM56.9897 36.5858C56.3268 36.5858 55.7864 36.0501 55.7864 35.3874C55.7864 34.72 56.3268 34.1843 56.9897 34.1843H66.7821C67.445 34.1843 67.9852 34.72 67.9852 35.3874C67.9852 36.0503 67.445 36.5858 66.7821 36.5858H56.9897ZM57.0486 38.924C57.7115 38.924 58.2471 39.4642 58.2471 40.1271C58.2471 40.79 57.7113 41.3302 57.0486 41.3302H44.1054C43.4425 41.3302 42.9022 40.79 42.9022 40.1271V25.9806C42.9022 25.3177 43.4424 24.7775 44.1054 24.7775H75.4307C76.0936 24.7775 76.6338 25.3177 76.6338 25.9806V40.1271C76.6338 40.79 76.0936 41.3302 75.4307 41.3302H62.4874C61.8246 41.3302 61.2889 40.79 61.2889 40.1271C61.2889 39.4642 61.8246 38.924 62.4874 38.924H74.2321V27.1792H45.3039V38.924H57.0486ZM44.1054 15.2074H58.1745C58.8374 15.2074 59.3776 15.7476 59.3776 16.4105V21.073C59.3776 21.7358 58.8372 22.2762 58.1745 22.2762H44.1054C43.4425 22.2762 42.9022 21.7358 42.9022 21.073V19.9426H36.6825L32.4105 22.1763C32.9144 22.7892 33.1914 23.4429 33.1959 24.1375V25.9489V29.4129C33.1959 30.6024 32.7055 31.6873 31.9247 32.4682C31.112 33.2809 30.0179 33.7349 28.8693 33.7349H24.4565C24.1932 35.5826 23.3306 37.2398 22.0731 38.4973C20.5477 40.0226 18.441 40.9669 16.112 40.9669C13.783 40.9669 11.6765 40.0226 10.1512 38.4973C8.89364 37.2398 8.03104 35.5826 7.76774 33.7349H2.4017V36.1638C2.4017 36.8267 1.86598 37.3624 1.20325 37.3624C0.540367 37.3624 0.000160156 36.8267 0.000160156 36.1638C0.000160156 26.2622 0.000160156 16.3653 0.000160156 6.46814C0 4.85184 0.658242 3.38545 1.72072 2.32298C2.78304 1.26066 4.24943 0.602417 5.86556 0.602417H76.1344C77.7506 0.602417 79.217 1.26066 80.2793 2.32298C81.3418 3.38545 82 4.85184 82 6.46798V8.67429C82 9.33718 81.4643 9.87739 80.8014 9.87739C80.1387 9.87739 79.5983 9.33702 79.5983 8.67429V6.46798C79.5983 5.51921 79.2078 4.65213 78.5813 4.0256C77.9548 3.39458 77.0877 3.00412 76.1343 3.00412H5.86556C4.91664 3.00412 4.04955 3.39458 3.42318 4.0256C2.79216 4.65213 2.4017 5.51921 2.4017 6.46798V11.3166C2.99188 11.7661 3.58205 12.2155 4.17223 12.6558C6.0017 14.0177 7.61351 15.0801 8.82109 15.1254C11.4906 15.2117 16.203 15.8881 18.7681 16.4556L35.5611 8.04344C35.7291 7.95711 35.9107 7.91179 36.0968 7.91179H42.9022V6.78141C42.9022 6.11404 43.4424 5.57831 44.1054 5.57831H58.1745C58.8374 5.57831 59.3776 6.11404 59.3776 6.78141V11.4439C59.3776 12.1068 58.8372 12.6423 58.1745 12.6423H44.1054C43.4425 12.6423 42.9022 12.1066 42.9022 11.4439V10.3133H36.3692L22.3274 17.3503C25.0103 18.0993 28.0296 19.0844 30.3993 20.5281L35.8426 17.6816C36.0151 17.5908 36.2059 17.541 36.3965 17.541H42.9022V16.4105C42.9022 15.7476 43.4424 15.2074 44.1054 15.2074ZM56.9714 17.6134H45.3039V19.8743H56.9714V17.6134ZM56.9714 7.97986H45.3039V10.2408H56.9714V7.97986ZM27.2712 21.6042V24.7505H30.7897V24.1375C30.7897 23.2339 27.6981 21.7948 27.2712 21.6042ZM48.8449 66.5221L46.5886 56.0213H35.4113L33.1595 66.5221H38.2805C38.9434 66.5221 39.4836 67.0578 39.4836 67.7207C39.4836 68.3834 38.9434 68.9238 38.2805 68.9238H25.5097C24.9512 68.9238 24.4427 69.1507 24.075 69.5231C23.7028 69.8908 23.4757 70.3993 23.4757 70.9576C23.4757 71.5159 23.7026 72.0244 24.075 72.3968C24.4427 72.7645 24.9512 72.9961 25.5097 72.9961H56.49C57.0485 72.9961 57.557 72.7645 57.9292 72.3968C58.2969 72.0244 58.5285 71.5159 58.5285 70.9576C58.5285 70.3992 58.2969 69.8907 57.9292 69.5231C57.5568 69.1507 57.0483 68.9238 56.49 68.9238H43.7191C43.0562 68.9238 42.5207 68.3834 42.5207 67.7207C42.5207 67.0578 43.0564 66.5221 43.7191 66.5221H48.8449ZM26.6221 51.3542C25.9548 51.3542 25.419 50.8184 25.419 50.1557C25.419 49.4928 25.9548 48.9526 26.6221 48.9526H28.6423C29.3052 48.9526 29.8408 49.4928 29.8408 50.1557C29.8408 50.8186 29.3051 51.3542 28.6423 51.3542H26.6221ZM53.3621 51.3542C52.6993 51.3542 52.159 50.8184 52.159 50.1557C52.159 49.4928 52.6993 48.9526 53.3621 48.9526H55.3824C56.0451 48.9526 56.5808 49.4928 56.5808 50.1557C56.5808 50.8186 56.0451 51.3542 55.3824 51.3542H53.3621ZM46.675 51.3542C46.0121 51.3542 45.4765 50.8184 45.4765 50.1557C45.4765 49.4928 46.0122 48.9526 46.675 48.9526H48.6952C49.3581 48.9526 49.8983 49.4928 49.8983 50.1557C49.8983 50.8186 49.3581 51.3542 48.6952 51.3542H46.675ZM39.9921 51.3542C39.3293 51.3542 38.789 50.8184 38.789 50.1557C38.789 49.4928 39.3293 48.9526 39.9921 48.9526H42.0123C42.6752 48.9526 43.2108 49.4928 43.2108 50.1557C43.2108 50.8186 42.6751 51.3542 42.0123 51.3542H39.9921ZM33.3048 51.3542C32.6419 51.3542 32.1064 50.8184 32.1064 50.1557C32.1064 49.4928 32.6421 48.9526 33.3048 48.9526H35.325C35.9879 48.9526 36.5281 49.4928 36.5281 50.1557C36.5281 50.8186 35.9879 51.3542 35.325 51.3542H33.3048ZM2.4017 46.6917V50.1556C2.4017 51.1045 2.79216 51.9716 3.42318 52.5979C4.04971 53.229 4.9168 53.6149 5.86556 53.6149H76.1344C77.0879 53.6149 77.9549 53.229 78.5815 52.5979C79.208 51.9714 79.5985 51.1043 79.5985 50.1556V46.6917H2.4017ZM2.4017 31.3422H7.7679C8.03119 29.4944 8.8938 27.8373 10.1513 26.5798C11.6767 25.0543 13.7834 24.11 16.1122 24.11C18.4412 24.11 20.5477 25.0543 22.0732 26.5798C23.3308 27.8373 24.1934 29.4944 24.4567 31.3422H28.8694C29.396 31.3422 29.8773 31.1197 30.2269 30.7703C30.5765 30.4208 30.7899 29.9394 30.7899 29.4128V27.1518H26.0685C25.4056 27.1518 24.8699 26.6116 24.8699 25.9487V20.6461C24.157 20.4009 23.4035 20.165 22.6317 19.9334C18.2733 18.6304 13.2614 17.718 9.93818 17.5545C9.72469 18.3308 9.30716 19.0298 8.75334 19.5883C7.91348 20.4237 6.76036 20.9411 5.48904 20.9411H2.4017V23.5379H4.65798C5.32087 23.5379 5.85659 24.0783 5.85659 24.741C5.85659 25.4037 5.32087 25.9395 4.65798 25.9395H2.4017V31.3422ZM2.4017 18.5398H5.48871C6.09699 18.5398 6.65097 18.2899 7.05504 17.8905C7.22305 17.718 7.36366 17.5228 7.47273 17.3048C5.87918 16.8371 4.20843 15.6749 2.40154 14.3176V18.5398H2.4017ZM50.0435 29.2403C50.4567 28.7227 51.2058 28.6363 51.7233 29.045C52.2454 29.4536 52.3317 30.2073 51.9231 30.7248L50.9425 31.9642L52.3227 32.5725C52.9265 32.8403 53.2034 33.5485 52.9356 34.1524C52.8812 34.2794 52.804 34.393 52.7132 34.4884L50.8338 36.8629C50.425 37.385 49.6715 37.4712 49.1539 37.0626C48.6364 36.6541 48.5501 35.9004 48.9586 35.3829L49.9393 34.1435L48.5592 33.535C47.851 33.2218 47.6194 32.3094 48.1052 31.6964L50.0435 29.2403ZM16.1122 28.3096C17.2789 28.3096 18.3368 28.7818 19.1041 29.5491C19.8667 30.3117 20.3389 31.3696 20.3389 32.5363C20.3389 33.703 19.8667 34.7609 19.1041 35.5282C18.3368 36.2908 17.2789 36.7675 16.1122 36.7675C14.9455 36.7675 13.8876 36.2908 13.1205 35.5282C12.3577 34.7609 11.8855 33.703 11.8855 32.5363C11.8855 31.3696 12.3577 30.3117 13.1205 29.5491C13.8876 28.7818 14.9455 28.3096 16.1122 28.3096ZM17.4061 31.2469C17.0747 30.9155 16.6161 30.7112 16.1122 30.7112C15.6083 30.7112 15.1498 30.9154 14.8229 31.2469C14.4916 31.5782 14.2872 32.0323 14.2872 32.5361C14.2872 33.0401 14.4914 33.4987 14.8229 33.83C15.1498 34.1614 15.6083 34.3658 16.1122 34.3658C16.6161 34.3658 17.0747 34.1616 17.4061 33.83C17.733 33.4987 17.9372 33.04 17.9372 32.5361C17.9372 32.0323 17.733 31.5782 17.4061 31.2469ZM20.3752 28.2777C19.2812 27.1836 17.7783 26.5119 16.1122 26.5119C14.4461 26.5119 12.9433 27.1884 11.8492 28.2777C10.7596 29.3674 10.0876 30.8747 10.0876 32.5361C10.0876 34.2022 10.7595 35.7096 11.8492 36.7992C12.9433 37.8887 14.4461 38.5652 16.1122 38.5652C17.7783 38.5652 19.2812 37.8887 20.3752 36.7992C21.4648 35.7096 22.1366 34.2022 22.1366 32.5361C22.1366 30.8747 21.4648 29.3674 20.3752 28.2777Z" fill="#EE3428"/>
</svg>
