<svg width="57" height="77" viewBox="0 0 57 77" fill="none" xmlns="http://www.w3.org/2000/svg">
<path d="M55.5377 21.0619C54.9523 20.5692 54.2142 20.3397 53.4601 20.4166L52.6063 20.5031V18.8635L53.9513 18.7274C55.5194 18.569 56.7018 17.1107 56.5866 15.4764C56.529 14.6593 56.1467 13.8967 55.5377 13.3843C54.9523 12.8916 54.2142 12.6626 53.4601 12.739L52.6063 12.8255V12.1953C52.6063 10.8662 51.525 9.78487 50.1959 9.78487H49.7461V1.91162C49.7461 0.857527 48.8885 0 47.8346 0H44.8835C43.8294 0 42.972 0.857678 42.972 1.91162V9.78487H42.5222C41.193 9.78487 40.1117 10.8662 40.1117 12.1953V14.089L38.6162 14.2403C37.0481 14.3987 35.8658 15.857 35.981 17.4913C36.0805 18.9002 37.0869 20.02 38.4286 20.2143C38.5596 20.2333 38.692 20.2427 38.8253 20.2427C38.9193 20.2427 39.0133 20.2381 39.1074 20.2286L40.1117 20.1269V21.7665L38.6162 21.9178C37.0481 22.0761 35.8658 23.5346 35.981 25.1686C36.0802 26.5776 37.0868 27.6974 38.4283 27.8917C38.5592 27.9107 38.692 27.9202 38.8253 27.9202C38.9193 27.9202 39.0133 27.9155 39.1074 27.906L40.1119 27.8044V29.3547H40.0367C39.413 29.3547 38.9077 29.8602 38.9077 30.4837V34.1075C38.9077 35.007 39.392 35.7936 40.112 36.2264V37.6993C40.112 38.8288 40.9705 39.7609 42.0691 39.8792V43.8682C40.7877 44.6958 39.7935 45.8613 39.1748 47.2114H33.8206V46.2471C33.8206 45.2978 33.0482 44.5256 32.0989 44.5256H29.1068C28.9582 42.7977 27.5052 41.4367 25.7394 41.4367H24.4198V28.2632C24.4198 25.7524 22.3771 23.7095 19.866 23.7095H4.95944C2.44852 23.7095 0.405762 25.7523 0.405762 28.2632V36.2796C0.405762 36.9032 0.911074 37.4086 1.53474 37.4086C2.15841 37.4086 2.66373 36.9032 2.66373 36.2796V28.2634C2.66373 26.9977 3.6936 25.9678 4.95929 25.9678H6.30288V50.4891C6.30288 51.1127 6.80819 51.6181 7.43186 51.6181C8.05553 51.6181 8.56084 51.1127 8.56084 50.4891V25.9678H11.2837V37.9326C11.2837 38.5561 11.789 39.0616 12.4126 39.0616C13.0363 39.0616 13.5416 38.5561 13.5416 37.9326V25.9678H16.2645V50.4891C16.2645 51.1127 16.7698 51.6181 17.3934 51.6181C18.0171 51.6181 18.5224 51.1127 18.5224 50.4891V25.9678H19.8659C21.1317 25.9678 22.1616 26.9977 22.1616 28.2634V72.4465C22.1616 73.7122 21.1317 74.742 19.8659 74.742H18.5224V62.8445C18.5224 62.221 18.0171 61.7155 17.3934 61.7155C16.7698 61.7155 16.2645 62.221 16.2645 62.8445V74.742H13.5416V50.2878C13.5416 49.6642 13.0363 49.1588 12.4126 49.1588C11.789 49.1588 11.2837 49.6642 11.2837 50.2878V74.742H8.56084V62.8445C8.56084 62.221 8.05553 61.7155 7.43186 61.7155C6.80819 61.7155 6.30288 62.221 6.30288 62.8445V74.742H4.95944C3.69375 74.742 2.66388 73.7122 2.66388 72.4465V40.7957C2.66388 40.1722 2.15856 39.6667 1.53489 39.6667C0.911224 39.6667 0.405912 40.1722 0.405912 40.7957V72.4465C0.405762 74.9572 2.44852 77 4.95944 77H19.866C22.3769 77 24.4198 74.9572 24.4198 72.4463V59.5415H25.7394C27.5051 59.5415 28.958 58.1806 29.1068 56.4526H32.0989C33.0482 56.4526 33.8206 55.6803 33.8206 54.7311V53.7668H39.1634C40.4077 56.5016 43.1642 58.4086 46.3593 58.4086C50.717 58.4086 54.2624 54.8633 54.2624 50.5054C54.2624 47.8021 52.8943 45.3181 50.6496 43.8683V39.8794C51.7482 39.7612 52.6066 38.8289 52.6066 37.6995V36.2265C53.3267 35.7937 53.811 35.0072 53.811 34.1077V30.4837C53.811 29.8602 53.3057 29.3547 52.682 29.3547H52.6068V26.5408L53.9517 26.4047C55.5199 26.2463 56.7022 24.788 56.587 23.1537C56.529 22.3366 56.1467 21.5741 55.5377 21.0619ZM26.8619 56.1608C26.8619 56.78 26.3582 57.2835 25.7392 57.2835H24.4197V43.6946H25.7392C26.3582 43.6946 26.8619 44.1983 26.8619 44.8173V56.1608ZM31.5623 54.1948H29.1198V46.7837H31.5623V54.1948ZM38.5218 51.5088H33.8204V49.4693H38.5245C38.4798 49.8098 38.4559 50.1556 38.4559 50.5054C38.4558 50.8454 38.48 51.1799 38.5218 51.5088ZM45.23 2.25812H47.4881V9.78502H45.23V2.25812ZM42.5222 12.043H50.1962C50.2802 12.043 50.3485 12.1113 50.3485 12.1953V13.0539L42.37 13.8608V12.1953H42.3699C42.3699 12.1114 42.4381 12.043 42.5222 12.043ZM38.8809 17.9821C38.8369 17.9864 38.7937 17.9857 38.7527 17.9797H38.7524C38.4753 17.9395 38.2573 17.6673 38.2337 17.3327C38.204 16.9107 38.4832 16.5236 38.8436 16.4872L53.6878 14.9858C53.7063 14.9839 53.7243 14.983 53.7418 14.983C53.8958 14.983 54.0114 15.0511 54.0836 15.112C54.23 15.2352 54.3188 15.4209 54.3339 15.6352C54.3635 16.0572 54.0844 16.4443 53.7239 16.4807L38.8809 17.9821ZM50.3484 19.0918V20.7313L42.3699 21.5382V19.8986L50.3484 19.0918ZM52.0042 50.5054C52.0042 53.6182 49.4719 56.1506 46.359 56.1506C43.246 56.1506 40.7137 53.6183 40.7137 50.5054C40.7137 48.4076 41.8678 46.4945 43.7255 45.5124C44.0953 45.3169 44.3267 44.9327 44.3267 44.5143V39.8925H48.3912V44.5141C48.3912 44.9325 48.6226 45.3166 48.9924 45.5121C50.8502 46.4945 52.0042 48.4076 52.0042 50.5054ZM42.3699 37.6344V36.5806H50.3484V37.6344H42.3699ZM51.5527 34.1075C51.5527 34.226 51.4561 34.3224 51.3378 34.3224H41.3804C41.2619 34.3224 41.1655 34.2259 41.1655 34.1075V31.6129H41.2407H51.4772H51.5527V34.1075ZM53.7242 24.1581L49.7831 24.5568C49.1627 24.6195 48.7106 25.1734 48.7733 25.7938C48.8359 26.4142 49.3889 26.8661 50.0103 26.8035L50.3482 26.7694V29.355H42.3697V27.5762L45.4942 27.2601C46.1146 27.1974 46.5666 26.6435 46.5039 26.0231C46.4414 25.4028 45.8888 24.9506 45.267 25.0134C45.2656 25.0136 45.1446 25.0258 45.1432 25.0259L38.8808 25.6592C38.8369 25.6637 38.7939 25.6628 38.7522 25.6568C38.4752 25.6166 38.2571 25.3446 38.2337 25.0098C38.204 24.5878 38.4832 24.2007 38.8436 24.1643L53.6878 22.663C53.8692 22.6442 54.0033 22.7215 54.0839 22.7893C54.2303 22.9125 54.3191 23.0982 54.3342 23.3125C54.3638 23.7346 54.0847 24.1219 53.7242 24.1581Z" fill="#EE3428"/>
</svg>
