<svg width="76" height="76" viewBox="0 0 76 76" fill="none" xmlns="http://www.w3.org/2000/svg">
<path d="M73.1052 34.8424H65.8421V31.2109C65.8421 29.2088 64.2127 27.5794 62.2106 27.5794H45.7887L27.1054 0L6.11386 30.9881C2.42414 36.4343 0.474121 42.7907 0.474121 49.3687C0.474121 64.0535 12.4207 76 27.1054 76C29.4405 76 31.7478 75.6828 33.9824 75.0873C34.7765 75.6562 35.7412 76 36.7897 76H68.2632C70.9336 76 73.1052 73.8284 73.1052 71.158V42.1055C74.4404 42.1055 75.5262 41.0197 75.5262 39.6845V37.2635C75.5262 35.9283 74.4404 34.8424 73.1052 34.8424ZM63.4211 31.2108V34.8423H41.6317V31.2108C41.6317 30.5438 42.1753 30.0003 42.8422 30.0003H62.2105C62.8776 30.0003 63.4211 30.5438 63.4211 31.2108ZM63.4211 66.3158V42.1055H65.8421V66.3158H63.4211ZM61 66.3158H58.5789V42.1055H61V66.3158ZM56.1579 66.3158H53.7369V42.1055H56.1579V66.3158ZM51.3159 66.3158H48.8949V42.1055H51.3159V66.3158ZM46.4739 66.3158H44.0529V42.1055H46.4739V66.3158ZM41.6317 66.3158H39.2107V42.1055H41.6317V66.3158ZM36.7897 66.3158H34.3686V42.1055H36.7897V66.3158ZM31.9476 42.1055V68.1135C30.3715 68.519 28.7494 68.737 27.1056 68.737C16.4264 68.737 7.73732 60.0479 7.73732 49.3687C7.73732 44.8535 9.04342 40.4678 11.5153 36.6886L27.1054 12.8436L39.2107 31.3585V34.8423H31.9476C30.6124 34.8423 29.5266 35.9281 29.5266 37.2633V39.6843C29.5265 41.0197 30.6124 42.1055 31.9476 42.1055ZM2.89514 49.3685C2.89514 43.2761 4.70118 37.3892 8.1185 32.345L27.1054 4.31671L42.864 27.5792H42.8422C41.8569 27.5792 40.9648 27.9763 40.3099 28.6155L27.1054 8.42041L9.48888 35.364C6.75911 39.5392 5.31615 44.3812 5.31615 49.3685C5.31615 61.3829 15.0911 71.1578 27.1054 71.1578C28.7433 71.1578 30.3654 70.9763 31.9475 70.618V71.1578C31.9475 71.8151 32.0818 72.4409 32.3204 73.0136C30.616 73.3876 28.868 73.5788 27.1054 73.5788C13.7559 73.579 2.89514 62.7194 2.89514 49.3685ZM68.2632 73.579H36.7897C35.4545 73.579 34.3686 72.4932 34.3686 71.158V68.737H70.6842V71.158C70.6842 72.4932 69.5984 73.579 68.2632 73.579ZM70.6842 66.3158H68.2632V42.1055H70.6842V66.3158ZM31.9476 39.6845V37.2635H73.1053L73.1065 39.6845H31.9476Z" fill="#EE3428"/>
<path d="M27.1057 42.1055C27.1057 38.0999 23.8482 34.8424 19.8426 34.8424C15.837 34.8424 12.5796 38.0999 12.5796 42.1055C12.5796 46.111 15.837 49.3685 19.8426 49.3685C23.8482 49.3685 27.1057 46.111 27.1057 42.1055ZM15.0006 42.1055C15.0006 39.4351 17.1722 37.2634 19.8426 37.2634C22.513 37.2634 24.6847 39.4351 24.6847 42.1055C24.6847 44.7758 22.513 46.9475 19.8426 46.9475C17.1722 46.9475 15.0006 44.7758 15.0006 42.1055Z" fill="#EE3428"/>
<path d="M31.9477 28.7898C31.9477 26.1194 29.7761 23.9478 27.1057 23.9478C24.4353 23.9478 22.2637 26.1194 22.2637 28.7898C22.2637 31.4602 24.4353 33.6318 27.1057 33.6318C29.7761 33.6318 31.9477 31.4602 31.9477 28.7898ZM27.1056 31.2108C25.7704 31.2108 24.6845 30.125 24.6845 28.7898C24.6845 27.4546 25.7704 26.3688 27.1056 26.3688C28.4408 26.3688 29.5266 27.4546 29.5266 28.7898C29.5266 30.125 28.4408 31.2108 27.1056 31.2108Z" fill="#EE3428"/>
<path d="M24.6843 51.7897C22.0139 51.7897 19.8423 53.9613 19.8423 56.6317C19.8423 59.3021 22.0139 61.4737 24.6843 61.4737C27.3547 61.4737 29.5263 59.3021 29.5263 56.6317C29.5263 53.9613 27.3547 51.7897 24.6843 51.7897ZM24.6843 59.0527C23.3491 59.0527 22.2633 57.9669 22.2633 56.6317C22.2633 55.2965 23.3491 54.2107 24.6843 54.2107C26.0195 54.2107 27.1053 55.2965 27.1053 56.6317C27.1053 57.9669 26.0195 59.0527 24.6843 59.0527Z" fill="#EE3428"/>
</svg>
