<svg width="10" height="12" viewBox="0 0 10 12" fill="none" xmlns="http://www.w3.org/2000/svg">
<path fill-rule="evenodd" clip-rule="evenodd" d="M5.00018 0.9375C3.90636 0.938096 2.85752 1.3729 2.08411 2.14639C1.3107 2.91987 0.875984 3.96875 0.875488 5.06257C0.952666 5.90244 1.24662 6.70788 1.72856 7.40003C2.56551 8.66353 3.53042 9.83742 4.60801 10.9031C4.71297 11.0053 4.85367 11.0625 5.00017 11.0625C5.14666 11.0625 5.28737 11.0053 5.39232 10.9031C6.46993 9.83743 7.43485 8.66354 8.2718 7.40004C8.75374 6.70789 9.04769 5.90245 9.12487 5.06258C9.12438 3.96876 8.68966 2.91988 7.91625 2.1464C7.14284 1.37291 6.094 0.9381 5.00018 0.9375ZM5.00018 3.1875C4.66642 3.18748 4.34015 3.28642 4.06263 3.47183C3.78511 3.65724 3.5688 3.92077 3.44105 4.22912C3.31331 4.53746 3.27987 4.87676 3.34496 5.20411C3.41005 5.53146 3.57075 5.83216 3.80674 6.06817C4.04273 6.30419 4.34341 6.46493 4.67075 6.53006C4.99809 6.59519 5.3374 6.56179 5.64575 6.43408C5.95411 6.30637 6.21768 6.09009 6.40312 5.81259C6.58856 5.53509 6.68754 5.20883 6.68756 4.87508C6.68733 4.42761 6.50949 3.99852 6.1931 3.6821C5.87671 3.36567 5.44765 3.18778 5.00018 3.1875Z" fill="white"/>
</svg>
