<svg width="16" height="16" viewBox="0 0 16 16" fill="none" xmlns="http://www.w3.org/2000/svg">
<path d="M13.2908 2.70914C12.0423 1.44818 10.3843 0.674881 8.61585 0.528717C6.8474 0.382552 5.08493 0.873149 3.64635 1.91202C2.20777 2.95088 1.18778 4.46963 0.770353 6.19431C0.35293 7.91899 0.565558 9.73607 1.36988 11.3178L0.580338 15.151C0.572146 15.1891 0.571913 15.2285 0.579656 15.2668C0.587399 15.305 0.602951 15.3413 0.625338 15.3732C0.658133 15.4217 0.704947 15.4591 0.759526 15.4803C0.814106 15.5015 0.873855 15.5055 0.930793 15.4919L4.68761 14.6014C6.26488 15.3854 8.06913 15.5843 9.77932 15.1629C11.4895 14.7414 12.9947 13.7269 14.0271 12.2998C15.0595 10.8727 15.5521 9.12568 15.4173 7.36949C15.2824 5.61331 14.5289 3.96191 13.2908 2.70914ZM12.1194 12.0582C11.2556 12.9196 10.1432 13.4883 8.93911 13.684C7.73498 13.8797 6.49979 13.6926 5.40761 13.1491L4.88398 12.8901L2.58079 13.4355L2.58761 13.4069L3.06488 11.0887L2.80852 10.5828C2.25047 9.48679 2.0536 8.24229 2.24614 7.02757C2.43867 5.81284 3.01072 4.69021 3.88034 3.82051C4.97303 2.72815 6.45483 2.11451 7.99989 2.11451C9.54494 2.11451 11.0267 2.72815 12.1194 3.82051C12.1287 3.83118 12.1388 3.8412 12.1494 3.85051C13.2286 4.94567 13.831 6.42305 13.8254 7.96055C13.8198 9.49805 13.2066 10.971 12.1194 12.0582Z" fill="white"/>
</svg>
